<svg width="11" height="17" viewBox="0 0 11 17" fill="none" xmlns="http://www.w3.org/2000/svg">
<path d="M7.90228 9.3897C7.90075 9.56056 7.84885 9.72709 7.7532 9.868C7.65755 10.0089 7.5225 10.1178 7.3653 10.1808C7.2081 10.2438 7.03589 10.2579 6.87068 10.2215C6.70546 10.1851 6.55473 10.0998 6.43775 9.9764C6.32077 9.85301 6.24285 9.69718 6.21394 9.52883C6.18503 9.36047 6.20645 9.18723 6.27546 9.03124C6.34447 8.87524 6.45793 8.74358 6.60136 8.65306C6.74478 8.56255 6.91166 8.51729 7.08066 8.52308C7.30243 8.53067 7.51249 8.62554 7.66599 8.78745C7.81949 8.94937 7.90429 9.16549 7.90228 9.3897ZM10.7851 9.54263C10.9724 9.97184 11.0392 10.4448 10.9782 10.9098C10.9172 11.3748 10.7307 11.8139 10.4392 12.1789L7.29688 16.0678C7.06207 16.3602 6.76538 16.5958 6.42863 16.7571C6.09188 16.9184 5.72362 17.0014 5.35094 17C4.74626 16.9959 4.16122 16.7826 3.69329 16.3955L0.954569 14.1379C0.538212 13.7966 0.237446 13.3326 0.0940744 12.8105C-0.0492971 12.2885 -0.0281515 11.7343 0.154573 11.2249L2.23024 3.94234C2.24702 3.88299 2.28247 3.83078 2.33124 3.79361C2.38 3.75644 2.43942 3.73633 2.50051 3.73633C2.56159 3.73633 2.62101 3.75644 2.66978 3.79361C2.71854 3.83078 2.754 3.88299 2.77078 3.94234L3.12393 5.33331C3.1407 5.39266 3.17616 5.44487 3.22493 5.48204C3.27369 5.51921 3.33311 5.53932 3.3942 5.53932C3.45528 5.53932 3.5147 5.51921 3.56347 5.48204C3.61223 5.44487 3.64769 5.39266 3.66446 5.33331L4.99779 0.213669C5.01187 0.152881 5.04588 0.0986898 5.09429 0.0598998C5.1427 0.0211098 5.20267 0 5.26446 0C5.32624 0 5.38621 0.0211098 5.43462 0.0598998C5.48303 0.0986898 5.51704 0.152881 5.53112 0.213669L6.7131 4.69245C6.72988 4.7518 6.76533 4.80401 6.8141 4.84118C6.86286 4.87835 6.92228 4.89845 6.98337 4.89845C7.04445 4.89845 7.10387 4.87835 7.15264 4.84118C7.2014 4.80401 7.23686 4.7518 7.25364 4.69245L7.90228 2.36203C7.91906 2.30268 7.95451 2.25047 8.00328 2.21329C8.05204 2.17612 8.11147 2.15602 8.17255 2.15602C8.23363 2.15602 8.29305 2.17612 8.34182 2.21329C8.39058 2.25047 8.42604 2.30268 8.44282 2.36203L10.7851 9.54263ZM9.34371 10.1762L8.5221 8.33373C8.45811 8.18087 8.35961 8.04527 8.23446 7.93778C8.10931 7.83029 7.96099 7.75389 7.80138 7.71471L5.83382 7.28504C5.7691 7.27884 5.70395 7.27884 5.63923 7.28504C5.50093 7.28547 5.36447 7.31708 5.23979 7.37755C5.11511 7.43802 5.00535 7.52584 4.91851 7.6346L1.74736 11.5089C1.58935 11.7204 1.51972 11.9861 1.55341 12.2489C1.58709 12.5117 1.72142 12.7506 1.92754 12.9145L4.67347 15.1721C4.8606 15.3268 5.09475 15.4116 5.33653 15.4124C5.47465 15.4109 5.61078 15.3789 5.73531 15.3185C5.85984 15.2581 5.96974 15.1708 6.05725 15.0628L9.24281 11.1812C9.34384 11.0405 9.40524 10.8748 9.42046 10.7017C9.43569 10.5286 9.40419 10.3545 9.3293 10.1981L9.34371 10.1762Z" fill="url(#paint0_linear)"/>
<defs>
<linearGradient id="paint0_linear" x1="-0.0183987" y1="8.50123" x2="10.9869" y2="8.50123" gradientUnits="userSpaceOnUse">
<stop stop-color="#6A6A6A"/>
<stop offset="1" stop-color="#6A6A6A"/>
</linearGradient>
</defs>
</svg>
